<svg width="499" height="499" viewBox="0 0 499 499" fill="none" xmlns="http://www.w3.org/2000/svg">
<circle cx="249.5" cy="249.5" r="249.5" fill="#B10518"/>
<path d="M499 136.932C496.358 137.404 493.622 138.066 490.98 138.255C471.922 139.578 453.147 142.508 434.467 146.572C430.598 147.422 426.541 147.611 422.579 147.611C373.801 147.706 325.118 147.706 276.341 147.8C272.85 147.8 269.265 147.8 265.774 147.8C259.358 147.8 254.075 152.903 254.075 159.33C253.981 180.877 253.981 202.425 253.886 223.972C253.886 247.504 253.792 270.942 253.792 294.474C253.792 316.304 253.792 338.135 253.698 359.966C253.698 367.527 248.509 372.536 240.866 372.819C231.054 373.197 225.677 383.498 230.866 391.815C233.13 395.406 236.338 397.769 240.489 398.808C248.226 400.887 251.622 404.762 252.754 412.701C253.792 420.072 253.037 427.444 252.094 434.72C250.679 446.25 249.263 457.874 247.754 469.404C246.716 477.343 245.678 485.376 244.546 493.314C244.357 494.543 243.886 495.677 243.508 496.905C243.225 496.905 243.036 497 242.753 497C242.376 495.771 241.716 494.543 241.527 493.22C240.017 482.919 238.319 472.712 237.093 462.411C235.583 449.652 232.753 437.083 230.017 424.514C228.79 419.032 228.413 413.362 227.469 407.786C226.337 401.36 222.469 398.052 216.053 397.863C207.751 397.674 199.354 397.674 191.051 397.58C184.07 397.485 178.503 392.476 178.503 385.483C178.409 378.867 173.408 372.725 165.577 372.63C158.69 372.536 153.595 366.96 153.501 359.966C153.407 352.028 153.124 344.184 153.407 336.245C153.69 329.157 148.689 322.92 141.236 322.164C132.556 321.313 128.499 315.548 128.782 307.61C129.065 300.994 130.386 294.379 131.424 287.764C132.839 278.124 134.349 268.484 135.858 258.75C137.179 250.623 138.5 242.59 139.915 234.557C140.104 233.328 140.67 232.194 141.047 231.06C141.33 231.06 141.613 231.06 141.802 231.06C142.179 232.194 142.746 233.328 142.84 234.462C144.066 243.346 145.104 252.229 146.425 261.018C148.218 272.359 150.293 283.7 152.086 295.041C152.935 300.427 153.312 305.909 154.162 311.39C155.199 318.195 159.162 321.691 165.955 322.069C173.22 322.447 178.126 327.267 178.597 334.544C179.069 341.916 183.126 346.357 190.579 347.019C196.712 347.586 201.146 350.232 203.033 356.28C203.505 357.793 203.599 359.399 203.788 360.911C204.354 367.149 209.543 372.063 215.865 372.158C221.808 372.252 227.28 367.621 228.035 361.573C228.224 360.344 228.224 359.21 228.224 357.982C228.224 292.205 228.224 226.429 228.224 160.653C228.224 156.967 227.28 153.66 224.639 151.013C222.186 148.462 219.167 147.422 215.676 147.517C189.636 147.517 163.596 147.517 137.556 147.517C123.121 147.517 108.686 147.422 94.2511 147.611C87.2694 147.706 80.5708 145.816 73.7778 144.776C63.1166 143.075 52.361 141.563 41.6998 139.862C35.2842 138.917 28.963 137.783 22.5474 136.743C21.6982 136.554 20.9435 136.176 20.0943 135.892C20.0943 135.703 20 135.42 20 135.231C21.2265 134.853 22.5474 134.286 23.7739 134.097C33.4916 132.585 43.2094 131.167 52.9271 129.56C58.2106 128.71 63.5883 127.765 68.7774 126.253C79.7217 123.04 90.8546 122 102.176 122C148.878 122 195.58 122 242.282 122C295.493 122 348.799 122 402.011 122C417.767 122 433.523 122.284 448.996 125.969C461.072 128.804 473.526 130.222 485.791 132.396C489.282 132.963 492.679 133.908 496.075 134.758C497.019 134.947 497.868 135.42 498.717 135.798C499 136.27 499 136.554 499 136.932Z" fill="black"/>
</svg>
